<mxfile host="app.diagrams.net" modified="2023-11-12T17:33:56.382Z" agent="Mozilla/5.0 (Windows NT 10.0; Win64; x64) AppleWebKit/537.36 (KHTML, like Gecko) Chrome/119.0.0.0 Safari/537.36" etag="RW19SJiInn3ZWbZtSMxM" version="22.1.0" type="device">
  <diagram name="Page-1" id="c4acf3e9-155e-7222-9cf6-157b1a14988f">
    <mxGraphModel dx="2984" dy="3009" grid="1" gridSize="10" guides="1" tooltips="1" connect="1" arrows="1" fold="1" page="1" pageScale="1" pageWidth="850" pageHeight="1100" background="none" math="0" shadow="0">
      <root>
        <mxCell id="0" />
        <mxCell id="1" parent="0" />
        <mxCell id="neKfUKwkKYPbyzntQtdu-20" value="BankProvider" style="swimlane;fontStyle=1;align=center;verticalAlign=top;childLayout=stackLayout;horizontal=1;startSize=26;horizontalStack=0;resizeParent=1;resizeParentMax=0;resizeLast=0;collapsible=1;marginBottom=0;whiteSpace=wrap;html=1;" parent="1" vertex="1">
          <mxGeometry x="210" y="-400" width="200" height="80" as="geometry" />
        </mxCell>
        <mxCell id="neKfUKwkKYPbyzntQtdu-22" value="" style="line;strokeWidth=1;fillColor=none;align=left;verticalAlign=middle;spacingTop=-1;spacingLeft=3;spacingRight=3;rotatable=0;labelPosition=right;points=[];portConstraint=eastwest;strokeColor=inherit;" parent="neKfUKwkKYPbyzntQtdu-20" vertex="1">
          <mxGeometry y="26" width="200" height="14" as="geometry" />
        </mxCell>
        <mxCell id="neKfUKwkKYPbyzntQtdu-23" value="+ verifyAccount(Account):Boolean&lt;br&gt;+ updateAcoountBalance()" style="text;strokeColor=none;fillColor=none;align=left;verticalAlign=top;spacingLeft=4;spacingRight=4;overflow=hidden;rotatable=0;points=[[0,0.5],[1,0.5]];portConstraint=eastwest;whiteSpace=wrap;html=1;" parent="neKfUKwkKYPbyzntQtdu-20" vertex="1">
          <mxGeometry y="40" width="200" height="40" as="geometry" />
        </mxCell>
        <mxCell id="neKfUKwkKYPbyzntQtdu-24" value="&lt;i&gt;E-walletProvider&lt;/i&gt;" style="swimlane;fontStyle=1;align=center;verticalAlign=top;childLayout=stackLayout;horizontal=1;startSize=26;horizontalStack=0;resizeParent=1;resizeParentMax=0;resizeLast=0;collapsible=1;marginBottom=0;whiteSpace=wrap;html=1;" parent="1" vertex="1">
          <mxGeometry x="210" y="-180" width="200" height="86" as="geometry" />
        </mxCell>
        <mxCell id="neKfUKwkKYPbyzntQtdu-25" value="+ field: type" style="text;strokeColor=none;fillColor=none;align=left;verticalAlign=top;spacingLeft=4;spacingRight=4;overflow=hidden;rotatable=0;points=[[0,0.5],[1,0.5]];portConstraint=eastwest;whiteSpace=wrap;html=1;" parent="neKfUKwkKYPbyzntQtdu-24" vertex="1">
          <mxGeometry y="26" width="200" height="26" as="geometry" />
        </mxCell>
        <mxCell id="neKfUKwkKYPbyzntQtdu-26" value="" style="line;strokeWidth=1;fillColor=none;align=left;verticalAlign=middle;spacingTop=-1;spacingLeft=3;spacingRight=3;rotatable=0;labelPosition=right;points=[];portConstraint=eastwest;strokeColor=inherit;" parent="neKfUKwkKYPbyzntQtdu-24" vertex="1">
          <mxGeometry y="52" width="200" height="8" as="geometry" />
        </mxCell>
        <mxCell id="neKfUKwkKYPbyzntQtdu-27" value="&lt;i&gt;+ verifyAccount(Account):Boolean&lt;/i&gt;" style="text;strokeColor=none;fillColor=none;align=left;verticalAlign=top;spacingLeft=4;spacingRight=4;overflow=hidden;rotatable=0;points=[[0,0.5],[1,0.5]];portConstraint=eastwest;whiteSpace=wrap;html=1;" parent="neKfUKwkKYPbyzntQtdu-24" vertex="1">
          <mxGeometry y="60" width="200" height="26" as="geometry" />
        </mxCell>
        <mxCell id="neKfUKwkKYPbyzntQtdu-31" value="BankE-wallet" style="swimlane;fontStyle=0;childLayout=stackLayout;horizontal=1;startSize=26;fillColor=none;horizontalStack=0;resizeParent=1;resizeParentMax=0;resizeLast=0;collapsible=1;marginBottom=0;whiteSpace=wrap;html=1;" parent="1" vertex="1">
          <mxGeometry x="660" y="-190" width="210" height="74" as="geometry" />
        </mxCell>
        <mxCell id="neKfUKwkKYPbyzntQtdu-43" value="" style="endArrow=block;endSize=16;endFill=0;html=1;rounded=0;entryX=1;entryY=0.5;entryDx=0;entryDy=0;" parent="neKfUKwkKYPbyzntQtdu-31" target="neKfUKwkKYPbyzntQtdu-25" edge="1">
          <mxGeometry width="160" relative="1" as="geometry">
            <mxPoint y="50" as="sourcePoint" />
            <mxPoint x="160" y="50" as="targetPoint" />
          </mxGeometry>
        </mxCell>
        <mxCell id="neKfUKwkKYPbyzntQtdu-34" value="+ verifyAccount(Account):Boolean" style="text;strokeColor=none;fillColor=none;align=left;verticalAlign=top;spacingLeft=4;spacingRight=4;overflow=hidden;rotatable=0;points=[[0,0.5],[1,0.5]];portConstraint=eastwest;whiteSpace=wrap;html=1;" parent="neKfUKwkKYPbyzntQtdu-31" vertex="1">
          <mxGeometry y="26" width="210" height="48" as="geometry" />
        </mxCell>
        <mxCell id="neKfUKwkKYPbyzntQtdu-35" value="TelecomE-wallet" style="swimlane;fontStyle=0;childLayout=stackLayout;horizontal=1;startSize=18;fillColor=none;horizontalStack=0;resizeParent=1;resizeParentMax=0;resizeLast=0;collapsible=1;marginBottom=0;whiteSpace=wrap;html=1;" parent="1" vertex="1">
          <mxGeometry x="660" y="-94" width="200" height="80" as="geometry" />
        </mxCell>
        <mxCell id="neKfUKwkKYPbyzntQtdu-37" value="+ verifyAccount(Account):Boolean" style="text;strokeColor=none;fillColor=none;align=left;verticalAlign=top;spacingLeft=4;spacingRight=4;overflow=hidden;rotatable=0;points=[[0,0.5],[1,0.5]];portConstraint=eastwest;whiteSpace=wrap;html=1;" parent="neKfUKwkKYPbyzntQtdu-35" vertex="1">
          <mxGeometry y="18" width="200" height="62" as="geometry" />
        </mxCell>
        <mxCell id="neKfUKwkKYPbyzntQtdu-39" value="E-paymentE-wallet" style="swimlane;fontStyle=0;childLayout=stackLayout;horizontal=1;startSize=26;fillColor=none;horizontalStack=0;resizeParent=1;resizeParentMax=0;resizeLast=0;collapsible=1;marginBottom=0;whiteSpace=wrap;html=1;" parent="1" vertex="1">
          <mxGeometry x="660" y="10" width="200" height="70" as="geometry" />
        </mxCell>
        <mxCell id="neKfUKwkKYPbyzntQtdu-40" value="+ verifyAccount(Account):Boolean" style="text;strokeColor=none;fillColor=none;align=left;verticalAlign=top;spacingLeft=4;spacingRight=4;overflow=hidden;rotatable=0;points=[[0,0.5],[1,0.5]];portConstraint=eastwest;whiteSpace=wrap;html=1;" parent="neKfUKwkKYPbyzntQtdu-39" vertex="1">
          <mxGeometry y="26" width="200" height="44" as="geometry" />
        </mxCell>
        <mxCell id="neKfUKwkKYPbyzntQtdu-44" value="" style="endArrow=block;endSize=16;endFill=0;html=1;rounded=0;exitX=0;exitY=0.5;exitDx=0;exitDy=0;entryX=0.995;entryY=1.154;entryDx=0;entryDy=0;entryPerimeter=0;" parent="1" source="neKfUKwkKYPbyzntQtdu-37" edge="1" target="neKfUKwkKYPbyzntQtdu-25">
          <mxGeometry width="160" relative="1" as="geometry">
            <mxPoint x="610" y="-70" as="sourcePoint" />
            <mxPoint x="410" y="-220" as="targetPoint" />
          </mxGeometry>
        </mxCell>
        <mxCell id="neKfUKwkKYPbyzntQtdu-45" value="" style="endArrow=block;endSize=16;endFill=0;html=1;rounded=0;entryX=1;entryY=0.5;entryDx=0;entryDy=0;exitX=0;exitY=0.5;exitDx=0;exitDy=0;" parent="1" source="neKfUKwkKYPbyzntQtdu-40" target="neKfUKwkKYPbyzntQtdu-27" edge="1">
          <mxGeometry width="160" relative="1" as="geometry">
            <mxPoint x="610" y="64" as="sourcePoint" />
            <mxPoint x="520" y="144" as="targetPoint" />
          </mxGeometry>
        </mxCell>
        <mxCell id="neKfUKwkKYPbyzntQtdu-49" value="&lt;i&gt;Account&lt;/i&gt;" style="swimlane;fontStyle=1;align=center;verticalAlign=top;childLayout=stackLayout;horizontal=1;startSize=26;horizontalStack=0;resizeParent=1;resizeParentMax=0;resizeLast=0;collapsible=1;marginBottom=0;whiteSpace=wrap;html=1;" parent="1" vertex="1">
          <mxGeometry x="-170" y="-620" width="160" height="120" as="geometry" />
        </mxCell>
        <mxCell id="neKfUKwkKYPbyzntQtdu-50" value="- balance : double&lt;br&gt;- mobileNumber : String&lt;br&gt;- provider : Provider" style="text;strokeColor=none;fillColor=none;align=left;verticalAlign=top;spacingLeft=4;spacingRight=4;overflow=hidden;rotatable=0;points=[[0,0.5],[1,0.5]];portConstraint=eastwest;whiteSpace=wrap;html=1;" parent="neKfUKwkKYPbyzntQtdu-49" vertex="1">
          <mxGeometry y="26" width="160" height="54" as="geometry" />
        </mxCell>
        <mxCell id="neKfUKwkKYPbyzntQtdu-51" value="" style="line;strokeWidth=1;fillColor=none;align=left;verticalAlign=middle;spacingTop=-1;spacingLeft=3;spacingRight=3;rotatable=0;labelPosition=right;points=[];portConstraint=eastwest;strokeColor=inherit;" parent="neKfUKwkKYPbyzntQtdu-49" vertex="1">
          <mxGeometry y="80" width="160" height="8" as="geometry" />
        </mxCell>
        <mxCell id="neKfUKwkKYPbyzntQtdu-52" value="+ method(type): type" style="text;strokeColor=none;fillColor=none;align=left;verticalAlign=top;spacingLeft=4;spacingRight=4;overflow=hidden;rotatable=0;points=[[0,0.5],[1,0.5]];portConstraint=eastwest;whiteSpace=wrap;html=1;" parent="neKfUKwkKYPbyzntQtdu-49" vertex="1">
          <mxGeometry y="88" width="160" height="32" as="geometry" />
        </mxCell>
        <mxCell id="neKfUKwkKYPbyzntQtdu-53" value="BankAccount" style="swimlane;fontStyle=1;align=center;verticalAlign=top;childLayout=stackLayout;horizontal=1;startSize=26;horizontalStack=0;resizeParent=1;resizeParentMax=0;resizeLast=0;collapsible=1;marginBottom=0;whiteSpace=wrap;html=1;" parent="1" vertex="1">
          <mxGeometry x="360" y="-637" width="160" height="34" as="geometry" />
        </mxCell>
        <mxCell id="neKfUKwkKYPbyzntQtdu-55" value="" style="line;strokeWidth=1;fillColor=none;align=left;verticalAlign=middle;spacingTop=-1;spacingLeft=3;spacingRight=3;rotatable=0;labelPosition=right;points=[];portConstraint=eastwest;strokeColor=inherit;" parent="neKfUKwkKYPbyzntQtdu-53" vertex="1">
          <mxGeometry y="26" width="160" height="8" as="geometry" />
        </mxCell>
        <mxCell id="neKfUKwkKYPbyzntQtdu-58" value="E-walletAccount" style="swimlane;fontStyle=1;align=center;verticalAlign=top;childLayout=stackLayout;horizontal=1;startSize=26;horizontalStack=0;resizeParent=1;resizeParentMax=0;resizeLast=0;collapsible=1;marginBottom=0;whiteSpace=wrap;html=1;" parent="1" vertex="1">
          <mxGeometry x="360" y="-520" width="160" height="34" as="geometry" />
        </mxCell>
        <mxCell id="neKfUKwkKYPbyzntQtdu-60" value="" style="line;strokeWidth=1;fillColor=none;align=left;verticalAlign=middle;spacingTop=-1;spacingLeft=3;spacingRight=3;rotatable=0;labelPosition=right;points=[];portConstraint=eastwest;strokeColor=inherit;" parent="neKfUKwkKYPbyzntQtdu-58" vertex="1">
          <mxGeometry y="26" width="160" height="8" as="geometry" />
        </mxCell>
        <mxCell id="neKfUKwkKYPbyzntQtdu-62" value="&lt;i&gt;Provider&lt;/i&gt;" style="swimlane;fontStyle=1;align=center;verticalAlign=top;childLayout=stackLayout;horizontal=1;startSize=26;horizontalStack=0;resizeParent=1;resizeParentMax=0;resizeLast=0;collapsible=1;marginBottom=0;whiteSpace=wrap;html=1;" parent="1" vertex="1">
          <mxGeometry x="-190" y="-350" width="200" height="60" as="geometry" />
        </mxCell>
        <mxCell id="neKfUKwkKYPbyzntQtdu-64" value="" style="line;strokeWidth=1;fillColor=none;align=left;verticalAlign=middle;spacingTop=-1;spacingLeft=3;spacingRight=3;rotatable=0;labelPosition=right;points=[];portConstraint=eastwest;strokeColor=inherit;" parent="neKfUKwkKYPbyzntQtdu-62" vertex="1">
          <mxGeometry y="26" width="200" height="8" as="geometry" />
        </mxCell>
        <mxCell id="neKfUKwkKYPbyzntQtdu-65" value="&lt;i&gt;+ verifyAcoount(Account): Boolean&lt;/i&gt;" style="text;strokeColor=none;fillColor=none;align=left;verticalAlign=top;spacingLeft=4;spacingRight=4;overflow=hidden;rotatable=0;points=[[0,0.5],[1,0.5]];portConstraint=eastwest;whiteSpace=wrap;html=1;" parent="neKfUKwkKYPbyzntQtdu-62" vertex="1">
          <mxGeometry y="34" width="200" height="26" as="geometry" />
        </mxCell>
        <mxCell id="neKfUKwkKYPbyzntQtdu-66" value="Extends" style="endArrow=block;endSize=16;endFill=0;html=1;rounded=0;entryX=1;entryY=0.5;entryDx=0;entryDy=0;exitX=0;exitY=0.5;exitDx=0;exitDy=0;" parent="1" source="neKfUKwkKYPbyzntQtdu-23" target="neKfUKwkKYPbyzntQtdu-62" edge="1">
          <mxGeometry width="160" relative="1" as="geometry">
            <mxPoint x="150" y="-240" as="sourcePoint" />
            <mxPoint x="310" y="-240" as="targetPoint" />
          </mxGeometry>
        </mxCell>
        <mxCell id="neKfUKwkKYPbyzntQtdu-67" value="Extends" style="endArrow=block;endSize=16;endFill=0;html=1;rounded=0;entryX=1;entryY=0.5;entryDx=0;entryDy=0;exitX=0;exitY=0.5;exitDx=0;exitDy=0;" parent="1" source="neKfUKwkKYPbyzntQtdu-25" target="neKfUKwkKYPbyzntQtdu-65" edge="1">
          <mxGeometry width="160" relative="1" as="geometry">
            <mxPoint x="330" y="-220" as="sourcePoint" />
            <mxPoint x="230" y="-255" as="targetPoint" />
          </mxGeometry>
        </mxCell>
        <mxCell id="neKfUKwkKYPbyzntQtdu-70" value="Extends" style="endArrow=block;endSize=16;endFill=0;html=1;rounded=0;entryX=1;entryY=0.5;entryDx=0;entryDy=0;exitX=0;exitY=0.5;exitDx=0;exitDy=0;" parent="1" target="neKfUKwkKYPbyzntQtdu-50" edge="1">
          <mxGeometry width="160" relative="1" as="geometry">
            <mxPoint x="360" y="-621" as="sourcePoint" />
            <mxPoint x="420" y="-580" as="targetPoint" />
          </mxGeometry>
        </mxCell>
        <mxCell id="neKfUKwkKYPbyzntQtdu-71" value="Extends" style="endArrow=block;endSize=16;endFill=0;html=1;rounded=0;exitX=0;exitY=0.5;exitDx=0;exitDy=0;entryX=1;entryY=0.5;entryDx=0;entryDy=0;" parent="1" target="neKfUKwkKYPbyzntQtdu-52" edge="1">
          <mxGeometry width="160" relative="1" as="geometry">
            <mxPoint x="360" y="-501" as="sourcePoint" />
            <mxPoint x="210" y="-536" as="targetPoint" />
          </mxGeometry>
        </mxCell>
        <mxCell id="neKfUKwkKYPbyzntQtdu-72" value="InstaPayAccount" style="swimlane;fontStyle=1;align=center;verticalAlign=top;childLayout=stackLayout;horizontal=1;startSize=26;horizontalStack=0;resizeParent=1;resizeParentMax=0;resizeLast=0;collapsible=1;marginBottom=0;whiteSpace=wrap;html=1;" parent="1" vertex="1">
          <mxGeometry x="-110" y="-870" width="190" height="108" as="geometry" />
        </mxCell>
        <mxCell id="neKfUKwkKYPbyzntQtdu-73" value="- account : Account&lt;br&gt;- intsaAccountNumber : String" style="text;strokeColor=none;fillColor=none;align=left;verticalAlign=top;spacingLeft=4;spacingRight=4;overflow=hidden;rotatable=0;points=[[0,0.5],[1,0.5]];portConstraint=eastwest;whiteSpace=wrap;html=1;" parent="neKfUKwkKYPbyzntQtdu-72" vertex="1">
          <mxGeometry y="26" width="190" height="74" as="geometry" />
        </mxCell>
        <mxCell id="neKfUKwkKYPbyzntQtdu-74" value="" style="line;strokeWidth=1;fillColor=none;align=left;verticalAlign=middle;spacingTop=-1;spacingLeft=3;spacingRight=3;rotatable=0;labelPosition=right;points=[];portConstraint=eastwest;strokeColor=inherit;" parent="neKfUKwkKYPbyzntQtdu-72" vertex="1">
          <mxGeometry y="100" width="190" height="8" as="geometry" />
        </mxCell>
        <mxCell id="neKfUKwkKYPbyzntQtdu-76" value="" style="endArrow=diamondThin;endFill=1;endSize=24;html=1;rounded=0;exitX=0.75;exitY=0;exitDx=0;exitDy=0;entryX=0.322;entryY=0.875;entryDx=0;entryDy=0;entryPerimeter=0;" parent="1" source="neKfUKwkKYPbyzntQtdu-49" target="neKfUKwkKYPbyzntQtdu-74" edge="1">
          <mxGeometry width="160" relative="1" as="geometry">
            <mxPoint x="60" y="-700" as="sourcePoint" />
            <mxPoint x="-10" y="-952" as="targetPoint" />
          </mxGeometry>
        </mxCell>
        <mxCell id="neKfUKwkKYPbyzntQtdu-77" value="User" style="swimlane;fontStyle=1;align=center;verticalAlign=top;childLayout=stackLayout;horizontal=1;startSize=26;horizontalStack=0;resizeParent=1;resizeParentMax=0;resizeLast=0;collapsible=1;marginBottom=0;whiteSpace=wrap;html=1;" parent="1" vertex="1">
          <mxGeometry x="310" y="-870" width="230" height="88" as="geometry" />
        </mxCell>
        <mxCell id="neKfUKwkKYPbyzntQtdu-79" value="" style="line;strokeWidth=1;fillColor=none;align=left;verticalAlign=middle;spacingTop=-1;spacingLeft=3;spacingRight=3;rotatable=0;labelPosition=right;points=[];portConstraint=eastwest;strokeColor=inherit;" parent="neKfUKwkKYPbyzntQtdu-77" vertex="1">
          <mxGeometry y="26" width="230" height="8" as="geometry" />
        </mxCell>
        <mxCell id="neKfUKwkKYPbyzntQtdu-78" value="- userName : String&lt;br&gt;- password : String&lt;br&gt;- instaAccount : InstaPayAccount" style="text;strokeColor=none;fillColor=none;align=left;verticalAlign=top;spacingLeft=4;spacingRight=4;overflow=hidden;rotatable=0;points=[[0,0.5],[1,0.5]];portConstraint=eastwest;whiteSpace=wrap;html=1;" parent="neKfUKwkKYPbyzntQtdu-77" vertex="1">
          <mxGeometry y="34" width="230" height="54" as="geometry" />
        </mxCell>
        <mxCell id="neKfUKwkKYPbyzntQtdu-81" value="" style="endArrow=open;endFill=1;endSize=12;html=1;rounded=0;exitX=0;exitY=0.5;exitDx=0;exitDy=0;entryX=1;entryY=0.5;entryDx=0;entryDy=0;" parent="1" source="neKfUKwkKYPbyzntQtdu-78" target="neKfUKwkKYPbyzntQtdu-73" edge="1">
          <mxGeometry width="160" relative="1" as="geometry">
            <mxPoint x="250" y="-780" as="sourcePoint" />
            <mxPoint x="230" y="-810" as="targetPoint" />
          </mxGeometry>
        </mxCell>
        <mxCell id="6Ml-qydHbANvLpOPYTYB-4" value="" style="group" parent="1" vertex="1" connectable="0">
          <mxGeometry x="360" y="-1070" width="670" height="190" as="geometry" />
        </mxCell>
        <mxCell id="neKfUKwkKYPbyzntQtdu-12" value="BankSignUp" style="swimlane;fontStyle=1;align=center;verticalAlign=top;childLayout=stackLayout;horizontal=1;startSize=26;horizontalStack=0;resizeParent=1;resizeParentMax=0;resizeLast=0;collapsible=1;marginBottom=0;whiteSpace=wrap;html=1;" parent="6Ml-qydHbANvLpOPYTYB-4" vertex="1">
          <mxGeometry x="510" y="10" width="160" height="66" as="geometry" />
        </mxCell>
        <mxCell id="neKfUKwkKYPbyzntQtdu-14" value="" style="line;strokeWidth=1;fillColor=none;align=left;verticalAlign=middle;spacingTop=-1;spacingLeft=3;spacingRight=3;rotatable=0;labelPosition=right;points=[];portConstraint=eastwest;strokeColor=inherit;" parent="neKfUKwkKYPbyzntQtdu-12" vertex="1">
          <mxGeometry y="26" width="160" height="14" as="geometry" />
        </mxCell>
        <mxCell id="neKfUKwkKYPbyzntQtdu-15" value="+ createAccount()" style="text;strokeColor=none;fillColor=none;align=left;verticalAlign=top;spacingLeft=4;spacingRight=4;overflow=hidden;rotatable=0;points=[[0,0.5],[1,0.5]];portConstraint=eastwest;whiteSpace=wrap;html=1;" parent="neKfUKwkKYPbyzntQtdu-12" vertex="1">
          <mxGeometry y="40" width="160" height="26" as="geometry" />
        </mxCell>
        <mxCell id="neKfUKwkKYPbyzntQtdu-16" value="Extends" style="endArrow=block;endSize=16;endFill=0;html=1;rounded=0;entryX=1;entryY=0.25;entryDx=0;entryDy=0;exitX=0;exitY=0.5;exitDx=0;exitDy=0;" parent="6Ml-qydHbANvLpOPYTYB-4" source="neKfUKwkKYPbyzntQtdu-12" target="neKfUKwkKYPbyzntQtdu-3" edge="1">
          <mxGeometry width="160" relative="1" as="geometry">
            <mxPoint x="260" y="233" as="sourcePoint" />
            <mxPoint x="330" y="280" as="targetPoint" />
          </mxGeometry>
        </mxCell>
        <mxCell id="neKfUKwkKYPbyzntQtdu-8" value="WalletSignUp" style="swimlane;fontStyle=1;align=center;verticalAlign=top;childLayout=stackLayout;horizontal=1;startSize=26;horizontalStack=0;resizeParent=1;resizeParentMax=0;resizeLast=0;collapsible=1;marginBottom=0;whiteSpace=wrap;html=1;" parent="6Ml-qydHbANvLpOPYTYB-4" vertex="1">
          <mxGeometry x="510" y="110" width="160" height="66" as="geometry" />
        </mxCell>
        <mxCell id="neKfUKwkKYPbyzntQtdu-10" value="" style="line;strokeWidth=1;fillColor=none;align=left;verticalAlign=middle;spacingTop=-1;spacingLeft=3;spacingRight=3;rotatable=0;labelPosition=right;points=[];portConstraint=eastwest;strokeColor=inherit;" parent="neKfUKwkKYPbyzntQtdu-8" vertex="1">
          <mxGeometry y="26" width="160" height="14" as="geometry" />
        </mxCell>
        <mxCell id="neKfUKwkKYPbyzntQtdu-11" value="+ createAccount()" style="text;strokeColor=none;fillColor=none;align=left;verticalAlign=top;spacingLeft=4;spacingRight=4;overflow=hidden;rotatable=0;points=[[0,0.5],[1,0.5]];portConstraint=eastwest;whiteSpace=wrap;html=1;" parent="neKfUKwkKYPbyzntQtdu-8" vertex="1">
          <mxGeometry y="40" width="160" height="26" as="geometry" />
        </mxCell>
        <mxCell id="neKfUKwkKYPbyzntQtdu-17" value="Extends" style="endArrow=block;endSize=16;endFill=0;html=1;rounded=0;entryX=1;entryY=0.75;entryDx=0;entryDy=0;exitX=0;exitY=0.5;exitDx=0;exitDy=0;" parent="6Ml-qydHbANvLpOPYTYB-4" source="neKfUKwkKYPbyzntQtdu-8" target="neKfUKwkKYPbyzntQtdu-3" edge="1">
          <mxGeometry width="160" relative="1" as="geometry">
            <mxPoint x="270" y="243" as="sourcePoint" />
            <mxPoint x="160" y="295" as="targetPoint" />
          </mxGeometry>
        </mxCell>
        <mxCell id="gGhk15VDYUR6Z1Eaznf5-3" value="UserSignOptions" style="swimlane;fontStyle=1;align=center;verticalAlign=top;childLayout=stackLayout;horizontal=1;startSize=26;horizontalStack=0;resizeParent=1;resizeParentMax=0;resizeLast=0;collapsible=1;marginBottom=0;whiteSpace=wrap;html=1;" parent="6Ml-qydHbANvLpOPYTYB-4" vertex="1">
          <mxGeometry width="160" height="124" as="geometry" />
        </mxCell>
        <mxCell id="gGhk15VDYUR6Z1Eaznf5-4" value="- signUp : SignUp&lt;br&gt;- user : User" style="text;strokeColor=none;fillColor=none;align=left;verticalAlign=top;spacingLeft=4;spacingRight=4;overflow=hidden;rotatable=0;points=[[0,0.5],[1,0.5]];portConstraint=eastwest;whiteSpace=wrap;html=1;" parent="gGhk15VDYUR6Z1Eaznf5-3" vertex="1">
          <mxGeometry y="26" width="160" height="64" as="geometry" />
        </mxCell>
        <mxCell id="gGhk15VDYUR6Z1Eaznf5-5" value="" style="line;strokeWidth=1;fillColor=none;align=left;verticalAlign=middle;spacingTop=-1;spacingLeft=3;spacingRight=3;rotatable=0;labelPosition=right;points=[];portConstraint=eastwest;strokeColor=inherit;" parent="gGhk15VDYUR6Z1Eaznf5-3" vertex="1">
          <mxGeometry y="90" width="160" height="8" as="geometry" />
        </mxCell>
        <mxCell id="gGhk15VDYUR6Z1Eaznf5-6" value="+ signIn() : Boolean" style="text;strokeColor=none;fillColor=none;align=left;verticalAlign=top;spacingLeft=4;spacingRight=4;overflow=hidden;rotatable=0;points=[[0,0.5],[1,0.5]];portConstraint=eastwest;whiteSpace=wrap;html=1;" parent="gGhk15VDYUR6Z1Eaznf5-3" vertex="1">
          <mxGeometry y="98" width="160" height="26" as="geometry" />
        </mxCell>
        <mxCell id="neKfUKwkKYPbyzntQtdu-3" value="&lt;p style=&quot;margin:0px;margin-top:4px;text-align:center;&quot;&gt;&lt;b&gt;SignUp&lt;/b&gt;&lt;/p&gt;&lt;hr size=&quot;1&quot;&gt;&lt;p style=&quot;margin:0px;margin-left:4px;&quot;&gt;- otp : OTPManager&lt;/p&gt;&lt;hr size=&quot;1&quot;&gt;&lt;p style=&quot;margin:0px;margin-left:4px;&quot;&gt;+ signUp(): Boolean&lt;/p&gt;&lt;p style=&quot;margin:0px;margin-left:4px;&quot;&gt;+ chooseAccountType()&lt;/p&gt;&lt;p style=&quot;margin:0px;margin-left:4px;&quot;&gt;&lt;i&gt;+ createAccount()&lt;/i&gt;&lt;/p&gt;&lt;p style=&quot;margin:0px;margin-left:4px;&quot;&gt;+ verifyAccount()&lt;/p&gt;&lt;p style=&quot;margin:0px;margin-left:4px;&quot;&gt;+ sendOTP()&lt;/p&gt;&lt;p style=&quot;margin:0px;margin-left:4px;&quot;&gt;+ getUserData()&lt;/p&gt;&lt;p style=&quot;margin:0px;margin-left:4px;&quot;&gt;&lt;span style=&quot;background-color: initial;&quot;&gt;+ verifyUserData()&lt;/span&gt;&lt;/p&gt;&lt;p style=&quot;margin:0px;margin-left:4px;&quot;&gt;&lt;span style=&quot;background-color: initial;&quot;&gt;+ setUser()&lt;/span&gt;&lt;/p&gt;&lt;p style=&quot;margin:0px;margin-left:4px;&quot;&gt;&lt;br&gt;&lt;/p&gt;" style="verticalAlign=top;align=left;overflow=fill;fontSize=12;fontFamily=Helvetica;html=1;whiteSpace=wrap;" parent="6Ml-qydHbANvLpOPYTYB-4" vertex="1">
          <mxGeometry x="230" width="160" height="190" as="geometry" />
        </mxCell>
        <mxCell id="neKfUKwkKYPbyzntQtdu-18" value="" style="endArrow=open;endFill=1;endSize=12;html=1;rounded=0;entryX=0;entryY=0.25;entryDx=0;entryDy=0;exitX=1.016;exitY=0.352;exitDx=0;exitDy=0;exitPerimeter=0;" parent="6Ml-qydHbANvLpOPYTYB-4" source="gGhk15VDYUR6Z1Eaznf5-4" target="neKfUKwkKYPbyzntQtdu-3" edge="1">
          <mxGeometry width="160" relative="1" as="geometry">
            <mxPoint x="70" y="110" as="sourcePoint" />
            <mxPoint x="270" y="150" as="targetPoint" />
            <Array as="points">
              <mxPoint x="190" y="48" />
            </Array>
          </mxGeometry>
        </mxCell>
        <mxCell id="3DZvmF1qQiKO0Ea3N1oI-5" value="" style="endArrow=open;endFill=1;endSize=12;html=1;rounded=0;entryX=0.5;entryY=0;entryDx=0;entryDy=0;" edge="1" parent="6Ml-qydHbANvLpOPYTYB-4" target="3DZvmF1qQiKO0Ea3N1oI-1">
          <mxGeometry width="160" relative="1" as="geometry">
            <mxPoint x="310" as="sourcePoint" />
            <mxPoint x="470" as="targetPoint" />
            <Array as="points">
              <mxPoint x="310" y="-70" />
              <mxPoint x="-135" y="-70" />
            </Array>
          </mxGeometry>
        </mxCell>
        <mxCell id="6Ml-qydHbANvLpOPYTYB-5" value="" style="endArrow=open;endFill=1;endSize=12;html=1;rounded=0;exitX=0.455;exitY=1.021;exitDx=0;exitDy=0;exitPerimeter=0;" parent="1" source="gGhk15VDYUR6Z1Eaznf5-6" edge="1">
          <mxGeometry width="160" relative="1" as="geometry">
            <mxPoint x="430" y="-970" as="sourcePoint" />
            <mxPoint x="433" y="-870" as="targetPoint" />
          </mxGeometry>
        </mxCell>
        <mxCell id="6Ml-qydHbANvLpOPYTYB-70" value="DataBase" style="swimlane;fontStyle=1;align=center;verticalAlign=top;childLayout=stackLayout;horizontal=1;startSize=26;horizontalStack=0;resizeParent=1;resizeParentMax=0;resizeLast=0;collapsible=1;marginBottom=0;whiteSpace=wrap;html=1;" parent="1" vertex="1">
          <mxGeometry x="880" y="-1310" width="380" height="160" as="geometry">
            <mxRectangle x="880" y="-1310" width="100" height="30" as="alternateBounds" />
          </mxGeometry>
        </mxCell>
        <mxCell id="6Ml-qydHbANvLpOPYTYB-71" value="- users : list&amp;lt;User&amp;gt;" style="text;strokeColor=none;fillColor=none;align=left;verticalAlign=top;spacingLeft=4;spacingRight=4;overflow=hidden;rotatable=0;points=[[0,0.5],[1,0.5]];portConstraint=eastwest;whiteSpace=wrap;html=1;" parent="6Ml-qydHbANvLpOPYTYB-70" vertex="1">
          <mxGeometry y="26" width="380" height="26" as="geometry" />
        </mxCell>
        <mxCell id="6Ml-qydHbANvLpOPYTYB-72" value="" style="line;strokeWidth=1;fillColor=none;align=left;verticalAlign=middle;spacingTop=-1;spacingLeft=3;spacingRight=3;rotatable=0;labelPosition=right;points=[];portConstraint=eastwest;strokeColor=inherit;" parent="6Ml-qydHbANvLpOPYTYB-70" vertex="1">
          <mxGeometry y="52" width="380" height="8" as="geometry" />
        </mxCell>
        <mxCell id="6Ml-qydHbANvLpOPYTYB-73" value="+ addUser(user:User) : Boolean&lt;br&gt;+ search(userName:String, password:String) : Boolean&lt;br&gt;+ getUser(userName:String) : User&lt;br&gt;+ updateUserBalance()" style="text;strokeColor=none;fillColor=none;align=left;verticalAlign=top;spacingLeft=4;spacingRight=4;overflow=hidden;rotatable=0;points=[[0,0.5],[1,0.5]];portConstraint=eastwest;whiteSpace=wrap;html=1;" parent="6Ml-qydHbANvLpOPYTYB-70" vertex="1">
          <mxGeometry y="60" width="380" height="100" as="geometry" />
        </mxCell>
        <mxCell id="6Ml-qydHbANvLpOPYTYB-76" value="" style="group" parent="1" vertex="1" connectable="0">
          <mxGeometry x="1030" y="-840" width="670" height="704" as="geometry" />
        </mxCell>
        <mxCell id="6Ml-qydHbANvLpOPYTYB-6" value="&lt;i&gt;BillPayment&lt;/i&gt;" style="swimlane;fontStyle=1;align=center;verticalAlign=top;childLayout=stackLayout;horizontal=1;startSize=26;horizontalStack=0;resizeParent=1;resizeParentMax=0;resizeLast=0;collapsible=1;marginBottom=0;whiteSpace=wrap;html=1;" parent="6Ml-qydHbANvLpOPYTYB-76" vertex="1">
          <mxGeometry x="220" y="-10" width="160" height="240" as="geometry" />
        </mxCell>
        <mxCell id="6Ml-qydHbANvLpOPYTYB-7" value="&lt;br&gt;- billProvider : BillProvider&lt;br&gt;- bill : Bill" style="text;strokeColor=none;fillColor=none;align=left;verticalAlign=top;spacingLeft=4;spacingRight=4;overflow=hidden;rotatable=0;points=[[0,0.5],[1,0.5]];portConstraint=eastwest;whiteSpace=wrap;html=1;" parent="6Ml-qydHbANvLpOPYTYB-6" vertex="1">
          <mxGeometry y="26" width="160" height="64" as="geometry" />
        </mxCell>
        <mxCell id="6Ml-qydHbANvLpOPYTYB-8" value="" style="line;strokeWidth=1;fillColor=none;align=left;verticalAlign=middle;spacingTop=-1;spacingLeft=3;spacingRight=3;rotatable=0;labelPosition=right;points=[];portConstraint=eastwest;strokeColor=inherit;" parent="6Ml-qydHbANvLpOPYTYB-6" vertex="1">
          <mxGeometry y="90" width="160" height="8" as="geometry" />
        </mxCell>
        <mxCell id="6Ml-qydHbANvLpOPYTYB-9" value="+ payBill(Account) : double&lt;br&gt;&lt;i&gt;+ setBillType()&lt;br&gt;+ enterData()&lt;br&gt;&lt;/i&gt;+ showReciept()&lt;br&gt;+ confirmPayment()" style="text;strokeColor=none;fillColor=none;align=left;verticalAlign=top;spacingLeft=4;spacingRight=4;overflow=hidden;rotatable=0;points=[[0,0.5],[1,0.5]];portConstraint=eastwest;whiteSpace=wrap;html=1;" parent="6Ml-qydHbANvLpOPYTYB-6" vertex="1">
          <mxGeometry y="98" width="160" height="142" as="geometry" />
        </mxCell>
        <mxCell id="6Ml-qydHbANvLpOPYTYB-10" value="GasBillPayment" style="swimlane;fontStyle=1;align=center;verticalAlign=top;childLayout=stackLayout;horizontal=1;startSize=26;horizontalStack=0;resizeParent=1;resizeParentMax=0;resizeLast=0;collapsible=1;marginBottom=0;whiteSpace=wrap;html=1;" parent="6Ml-qydHbANvLpOPYTYB-76" vertex="1">
          <mxGeometry x="40" y="410" width="160" height="84" as="geometry" />
        </mxCell>
        <mxCell id="6Ml-qydHbANvLpOPYTYB-12" value="" style="line;strokeWidth=1;fillColor=none;align=left;verticalAlign=middle;spacingTop=-1;spacingLeft=3;spacingRight=3;rotatable=0;labelPosition=right;points=[];portConstraint=eastwest;strokeColor=inherit;" parent="6Ml-qydHbANvLpOPYTYB-10" vertex="1">
          <mxGeometry y="26" width="160" height="8" as="geometry" />
        </mxCell>
        <mxCell id="6Ml-qydHbANvLpOPYTYB-13" value="+ enterData()&lt;br&gt;+ setBillType()" style="text;strokeColor=none;fillColor=none;align=left;verticalAlign=top;spacingLeft=4;spacingRight=4;overflow=hidden;rotatable=0;points=[[0,0.5],[1,0.5]];portConstraint=eastwest;whiteSpace=wrap;html=1;" parent="6Ml-qydHbANvLpOPYTYB-10" vertex="1">
          <mxGeometry y="34" width="160" height="50" as="geometry" />
        </mxCell>
        <mxCell id="6Ml-qydHbANvLpOPYTYB-14" value="WaterBillPayment" style="swimlane;fontStyle=1;align=center;verticalAlign=top;childLayout=stackLayout;horizontal=1;startSize=26;horizontalStack=0;resizeParent=1;resizeParentMax=0;resizeLast=0;collapsible=1;marginBottom=0;whiteSpace=wrap;html=1;" parent="6Ml-qydHbANvLpOPYTYB-76" vertex="1">
          <mxGeometry x="230" y="410" width="160" height="84" as="geometry" />
        </mxCell>
        <mxCell id="6Ml-qydHbANvLpOPYTYB-16" value="" style="line;strokeWidth=1;fillColor=none;align=left;verticalAlign=middle;spacingTop=-1;spacingLeft=3;spacingRight=3;rotatable=0;labelPosition=right;points=[];portConstraint=eastwest;strokeColor=inherit;" parent="6Ml-qydHbANvLpOPYTYB-14" vertex="1">
          <mxGeometry y="26" width="160" height="8" as="geometry" />
        </mxCell>
        <mxCell id="6Ml-qydHbANvLpOPYTYB-17" value="+ enterData()&lt;br&gt;&lt;span style=&quot;border-color: var(--border-color);&quot;&gt;&lt;span style=&quot;border-color: var(--border-color);&quot;&gt;+ setBillType()&lt;/span&gt;&lt;/span&gt;" style="text;strokeColor=none;fillColor=none;align=left;verticalAlign=top;spacingLeft=4;spacingRight=4;overflow=hidden;rotatable=0;points=[[0,0.5],[1,0.5]];portConstraint=eastwest;whiteSpace=wrap;html=1;" parent="6Ml-qydHbANvLpOPYTYB-14" vertex="1">
          <mxGeometry y="34" width="160" height="50" as="geometry" />
        </mxCell>
        <mxCell id="6Ml-qydHbANvLpOPYTYB-18" value="ElectricityBillPayment" style="swimlane;fontStyle=1;align=center;verticalAlign=top;childLayout=stackLayout;horizontal=1;startSize=26;horizontalStack=0;resizeParent=1;resizeParentMax=0;resizeLast=0;collapsible=1;marginBottom=0;whiteSpace=wrap;html=1;" parent="6Ml-qydHbANvLpOPYTYB-76" vertex="1">
          <mxGeometry x="420" y="410" width="160" height="84" as="geometry" />
        </mxCell>
        <mxCell id="6Ml-qydHbANvLpOPYTYB-20" value="" style="line;strokeWidth=1;fillColor=none;align=left;verticalAlign=middle;spacingTop=-1;spacingLeft=3;spacingRight=3;rotatable=0;labelPosition=right;points=[];portConstraint=eastwest;strokeColor=inherit;" parent="6Ml-qydHbANvLpOPYTYB-18" vertex="1">
          <mxGeometry y="26" width="160" height="8" as="geometry" />
        </mxCell>
        <mxCell id="6Ml-qydHbANvLpOPYTYB-21" value="+ enterData()&lt;br&gt;+ setBillType()" style="text;strokeColor=none;fillColor=none;align=left;verticalAlign=top;spacingLeft=4;spacingRight=4;overflow=hidden;rotatable=0;points=[[0,0.5],[1,0.5]];portConstraint=eastwest;whiteSpace=wrap;html=1;" parent="6Ml-qydHbANvLpOPYTYB-18" vertex="1">
          <mxGeometry y="34" width="160" height="50" as="geometry" />
        </mxCell>
        <mxCell id="6Ml-qydHbANvLpOPYTYB-34" value="&lt;i&gt;UtilityData&lt;/i&gt;" style="swimlane;fontStyle=1;align=center;verticalAlign=top;childLayout=stackLayout;horizontal=1;startSize=26;horizontalStack=0;resizeParent=1;resizeParentMax=0;resizeLast=0;collapsible=1;marginBottom=0;whiteSpace=wrap;html=1;" parent="6Ml-qydHbANvLpOPYTYB-76" vertex="1">
          <mxGeometry x="430" y="220" width="210" height="104" as="geometry" />
        </mxCell>
        <mxCell id="6Ml-qydHbANvLpOPYTYB-35" value="- subscriptionNumber : String" style="text;strokeColor=none;fillColor=none;align=left;verticalAlign=top;spacingLeft=4;spacingRight=4;overflow=hidden;rotatable=0;points=[[0,0.5],[1,0.5]];portConstraint=eastwest;whiteSpace=wrap;html=1;" parent="6Ml-qydHbANvLpOPYTYB-34" vertex="1">
          <mxGeometry y="26" width="210" height="44" as="geometry" />
        </mxCell>
        <mxCell id="6Ml-qydHbANvLpOPYTYB-36" value="" style="line;strokeWidth=1;fillColor=none;align=left;verticalAlign=middle;spacingTop=-1;spacingLeft=3;spacingRight=3;rotatable=0;labelPosition=right;points=[];portConstraint=eastwest;strokeColor=inherit;" parent="6Ml-qydHbANvLpOPYTYB-34" vertex="1">
          <mxGeometry y="70" width="210" height="8" as="geometry" />
        </mxCell>
        <mxCell id="6Ml-qydHbANvLpOPYTYB-37" value="+ method(type): type" style="text;strokeColor=none;fillColor=none;align=left;verticalAlign=top;spacingLeft=4;spacingRight=4;overflow=hidden;rotatable=0;points=[[0,0.5],[1,0.5]];portConstraint=eastwest;whiteSpace=wrap;html=1;" parent="6Ml-qydHbANvLpOPYTYB-34" vertex="1">
          <mxGeometry y="78" width="210" height="26" as="geometry" />
        </mxCell>
        <mxCell id="6Ml-qydHbANvLpOPYTYB-47" value="BillReciept" style="swimlane;fontStyle=1;align=center;verticalAlign=top;childLayout=stackLayout;horizontal=1;startSize=26;horizontalStack=0;resizeParent=1;resizeParentMax=0;resizeLast=0;collapsible=1;marginBottom=0;whiteSpace=wrap;html=1;" parent="6Ml-qydHbANvLpOPYTYB-76" vertex="1">
          <mxGeometry x="505" y="20" width="160" height="104" as="geometry" />
        </mxCell>
        <mxCell id="6Ml-qydHbANvLpOPYTYB-48" value="- amount : double&lt;br style=&quot;border-color: var(--border-color);&quot;&gt;- tax : double" style="text;strokeColor=none;fillColor=none;align=left;verticalAlign=top;spacingLeft=4;spacingRight=4;overflow=hidden;rotatable=0;points=[[0,0.5],[1,0.5]];portConstraint=eastwest;whiteSpace=wrap;html=1;" parent="6Ml-qydHbANvLpOPYTYB-47" vertex="1">
          <mxGeometry y="26" width="160" height="44" as="geometry" />
        </mxCell>
        <mxCell id="6Ml-qydHbANvLpOPYTYB-49" value="" style="line;strokeWidth=1;fillColor=none;align=left;verticalAlign=middle;spacingTop=-1;spacingLeft=3;spacingRight=3;rotatable=0;labelPosition=right;points=[];portConstraint=eastwest;strokeColor=inherit;" parent="6Ml-qydHbANvLpOPYTYB-47" vertex="1">
          <mxGeometry y="70" width="160" height="8" as="geometry" />
        </mxCell>
        <mxCell id="6Ml-qydHbANvLpOPYTYB-50" value="+ method(type): type" style="text;strokeColor=none;fillColor=none;align=left;verticalAlign=top;spacingLeft=4;spacingRight=4;overflow=hidden;rotatable=0;points=[[0,0.5],[1,0.5]];portConstraint=eastwest;whiteSpace=wrap;html=1;" parent="6Ml-qydHbANvLpOPYTYB-47" vertex="1">
          <mxGeometry y="78" width="160" height="26" as="geometry" />
        </mxCell>
        <mxCell id="6Ml-qydHbANvLpOPYTYB-54" value="" style="endArrow=diamondThin;endFill=1;endSize=24;html=1;rounded=0;entryX=0.991;entryY=0.696;entryDx=0;entryDy=0;entryPerimeter=0;" parent="6Ml-qydHbANvLpOPYTYB-76" target="6Ml-qydHbANvLpOPYTYB-9" edge="1">
          <mxGeometry width="160" relative="1" as="geometry">
            <mxPoint x="530" y="220" as="sourcePoint" />
            <mxPoint x="300" y="400" as="targetPoint" />
            <Array as="points">
              <mxPoint x="530" y="187" />
            </Array>
          </mxGeometry>
        </mxCell>
        <mxCell id="6Ml-qydHbANvLpOPYTYB-55" value="Extends" style="endArrow=block;endSize=16;endFill=0;html=1;rounded=0;exitX=0.5;exitY=0;exitDx=0;exitDy=0;entryX=0.124;entryY=1.012;entryDx=0;entryDy=0;entryPerimeter=0;" parent="6Ml-qydHbANvLpOPYTYB-76" source="6Ml-qydHbANvLpOPYTYB-10" target="6Ml-qydHbANvLpOPYTYB-9" edge="1">
          <mxGeometry width="160" relative="1" as="geometry">
            <mxPoint x="150" y="90" as="sourcePoint" />
            <mxPoint x="310" y="90" as="targetPoint" />
          </mxGeometry>
        </mxCell>
        <mxCell id="6Ml-qydHbANvLpOPYTYB-56" value="Extends" style="endArrow=block;endSize=16;endFill=0;html=1;rounded=0;exitX=0.5;exitY=0;exitDx=0;exitDy=0;entryX=0.578;entryY=1.004;entryDx=0;entryDy=0;entryPerimeter=0;" parent="6Ml-qydHbANvLpOPYTYB-76" source="6Ml-qydHbANvLpOPYTYB-18" target="6Ml-qydHbANvLpOPYTYB-9" edge="1">
          <mxGeometry width="160" relative="1" as="geometry">
            <mxPoint x="171" y="109" as="sourcePoint" />
            <mxPoint x="220" y="145" as="targetPoint" />
          </mxGeometry>
        </mxCell>
        <mxCell id="6Ml-qydHbANvLpOPYTYB-57" value="Extends" style="endArrow=block;endSize=16;endFill=0;html=1;rounded=0;exitX=0.5;exitY=0;exitDx=0;exitDy=0;entryX=0.384;entryY=1.019;entryDx=0;entryDy=0;entryPerimeter=0;" parent="6Ml-qydHbANvLpOPYTYB-76" source="6Ml-qydHbANvLpOPYTYB-14" target="6Ml-qydHbANvLpOPYTYB-9" edge="1">
          <mxGeometry width="160" relative="1" as="geometry">
            <mxPoint x="161" y="235" as="sourcePoint" />
            <mxPoint x="228" y="240" as="targetPoint" />
          </mxGeometry>
        </mxCell>
        <mxCell id="6Ml-qydHbANvLpOPYTYB-77" value="UserAction" style="swimlane;fontStyle=1;align=center;verticalAlign=top;childLayout=stackLayout;horizontal=1;startSize=26;horizontalStack=0;resizeParent=1;resizeParentMax=0;resizeLast=0;collapsible=1;marginBottom=0;whiteSpace=wrap;html=1;" parent="6Ml-qydHbANvLpOPYTYB-76" vertex="1">
          <mxGeometry x="-80" y="58" width="210" height="160" as="geometry" />
        </mxCell>
        <mxCell id="3DZvmF1qQiKO0Ea3N1oI-7" value="" style="endArrow=open;endFill=1;endSize=12;html=1;rounded=0;entryX=0.6;entryY=1.07;entryDx=0;entryDy=0;entryPerimeter=0;" edge="1" parent="6Ml-qydHbANvLpOPYTYB-77" target="6Ml-qydHbANvLpOPYTYB-73">
          <mxGeometry width="160" relative="1" as="geometry">
            <mxPoint x="160" y="2" as="sourcePoint" />
            <mxPoint x="320" y="2" as="targetPoint" />
          </mxGeometry>
        </mxCell>
        <mxCell id="6Ml-qydHbANvLpOPYTYB-78" value="- transaction : Transaction&lt;br&gt;- billPayment : BillPayment&lt;br&gt;- user : User&lt;br&gt;- signOption : UserSignOption" style="text;strokeColor=none;fillColor=none;align=left;verticalAlign=top;spacingLeft=4;spacingRight=4;overflow=hidden;rotatable=0;points=[[0,0.5],[1,0.5]];portConstraint=eastwest;whiteSpace=wrap;html=1;" parent="6Ml-qydHbANvLpOPYTYB-77" vertex="1">
          <mxGeometry y="26" width="210" height="74" as="geometry" />
        </mxCell>
        <mxCell id="6Ml-qydHbANvLpOPYTYB-79" value="" style="line;strokeWidth=1;fillColor=none;align=left;verticalAlign=middle;spacingTop=-1;spacingLeft=3;spacingRight=3;rotatable=0;labelPosition=right;points=[];portConstraint=eastwest;strokeColor=inherit;" parent="6Ml-qydHbANvLpOPYTYB-77" vertex="1">
          <mxGeometry y="100" width="210" height="8" as="geometry" />
        </mxCell>
        <mxCell id="6Ml-qydHbANvLpOPYTYB-80" value="+ displayMenu()&lt;br&gt;+ displayProfile()" style="text;strokeColor=none;fillColor=none;align=left;verticalAlign=top;spacingLeft=4;spacingRight=4;overflow=hidden;rotatable=0;points=[[0,0.5],[1,0.5]];portConstraint=eastwest;whiteSpace=wrap;html=1;" parent="6Ml-qydHbANvLpOPYTYB-77" vertex="1">
          <mxGeometry y="108" width="210" height="52" as="geometry" />
        </mxCell>
        <mxCell id="6Ml-qydHbANvLpOPYTYB-83" value="" style="endArrow=diamondThin;endFill=0;endSize=24;html=1;rounded=0;exitX=0;exitY=0.092;exitDx=0;exitDy=0;exitPerimeter=0;" parent="6Ml-qydHbANvLpOPYTYB-76" source="6Ml-qydHbANvLpOPYTYB-9" edge="1">
          <mxGeometry width="160" relative="1" as="geometry">
            <mxPoint x="-210" y="100" as="sourcePoint" />
            <mxPoint x="130" y="101" as="targetPoint" />
          </mxGeometry>
        </mxCell>
        <mxCell id="6Ml-qydHbANvLpOPYTYB-53" value="Bill_API" style="shape=umlFrame;whiteSpace=wrap;html=1;pointerEvents=0;" parent="1" vertex="1">
          <mxGeometry x="1480" y="-1030" width="250" height="350" as="geometry" />
        </mxCell>
        <mxCell id="6Ml-qydHbANvLpOPYTYB-24" value="&lt;i&gt;BillProvider&lt;/i&gt;" style="swimlane;fontStyle=1;align=center;verticalAlign=top;childLayout=stackLayout;horizontal=1;startSize=26;horizontalStack=0;resizeParent=1;resizeParentMax=0;resizeLast=0;collapsible=1;marginBottom=0;whiteSpace=wrap;html=1;" parent="1" vertex="1">
          <mxGeometry x="1520" y="-990" width="190" height="104" as="geometry" />
        </mxCell>
        <mxCell id="6Ml-qydHbANvLpOPYTYB-25" value="- providerName : String&amp;nbsp;&lt;br&gt;- reciept : BillReciept" style="text;strokeColor=none;fillColor=none;align=left;verticalAlign=top;spacingLeft=4;spacingRight=4;overflow=hidden;rotatable=0;points=[[0,0.5],[1,0.5]];portConstraint=eastwest;whiteSpace=wrap;html=1;" parent="6Ml-qydHbANvLpOPYTYB-24" vertex="1">
          <mxGeometry y="26" width="190" height="44" as="geometry" />
        </mxCell>
        <mxCell id="6Ml-qydHbANvLpOPYTYB-26" value="" style="line;strokeWidth=1;fillColor=none;align=left;verticalAlign=middle;spacingTop=-1;spacingLeft=3;spacingRight=3;rotatable=0;labelPosition=right;points=[];portConstraint=eastwest;strokeColor=inherit;" parent="6Ml-qydHbANvLpOPYTYB-24" vertex="1">
          <mxGeometry y="70" width="190" height="8" as="geometry" />
        </mxCell>
        <mxCell id="6Ml-qydHbANvLpOPYTYB-27" value="+ getBillReciept(Bill) : BillReciept&amp;nbsp;" style="text;strokeColor=none;fillColor=none;align=left;verticalAlign=top;spacingLeft=4;spacingRight=4;overflow=hidden;rotatable=0;points=[[0,0.5],[1,0.5]];portConstraint=eastwest;whiteSpace=wrap;html=1;" parent="6Ml-qydHbANvLpOPYTYB-24" vertex="1">
          <mxGeometry y="78" width="190" height="26" as="geometry" />
        </mxCell>
        <mxCell id="6Ml-qydHbANvLpOPYTYB-52" value="" style="endArrow=diamondThin;endFill=0;endSize=24;html=1;rounded=0;exitX=0;exitY=0.5;exitDx=0;exitDy=0;entryX=0.5;entryY=0;entryDx=0;entryDy=0;" parent="1" source="6Ml-qydHbANvLpOPYTYB-25" target="6Ml-qydHbANvLpOPYTYB-6" edge="1">
          <mxGeometry width="160" relative="1" as="geometry">
            <mxPoint x="1220" y="-710" as="sourcePoint" />
            <mxPoint x="1380" y="-710" as="targetPoint" />
            <Array as="points">
              <mxPoint x="1330" y="-940" />
            </Array>
          </mxGeometry>
        </mxCell>
        <mxCell id="6Ml-qydHbANvLpOPYTYB-51" value="" style="endArrow=diamondThin;endFill=1;endSize=24;html=1;rounded=0;entryX=0.495;entryY=0.958;entryDx=0;entryDy=0;entryPerimeter=0;" parent="1" source="6Ml-qydHbANvLpOPYTYB-47" target="6Ml-qydHbANvLpOPYTYB-27" edge="1">
          <mxGeometry width="160" relative="1" as="geometry">
            <mxPoint x="1370" y="-710" as="sourcePoint" />
            <mxPoint x="1530" y="-710" as="targetPoint" />
          </mxGeometry>
        </mxCell>
        <mxCell id="6Ml-qydHbANvLpOPYTYB-42" value="GasData" style="swimlane;fontStyle=1;align=center;verticalAlign=top;childLayout=stackLayout;horizontal=1;startSize=26;horizontalStack=0;resizeParent=1;resizeParentMax=0;resizeLast=0;collapsible=1;marginBottom=0;whiteSpace=wrap;html=1;" parent="1" vertex="1">
          <mxGeometry x="1780" y="-716" width="160" height="86" as="geometry" />
        </mxCell>
        <mxCell id="6Ml-qydHbANvLpOPYTYB-43" value="- reading : String" style="text;strokeColor=none;fillColor=none;align=left;verticalAlign=top;spacingLeft=4;spacingRight=4;overflow=hidden;rotatable=0;points=[[0,0.5],[1,0.5]];portConstraint=eastwest;whiteSpace=wrap;html=1;" parent="6Ml-qydHbANvLpOPYTYB-42" vertex="1">
          <mxGeometry y="26" width="160" height="26" as="geometry" />
        </mxCell>
        <mxCell id="6Ml-qydHbANvLpOPYTYB-44" value="" style="line;strokeWidth=1;fillColor=none;align=left;verticalAlign=middle;spacingTop=-1;spacingLeft=3;spacingRight=3;rotatable=0;labelPosition=right;points=[];portConstraint=eastwest;strokeColor=inherit;" parent="6Ml-qydHbANvLpOPYTYB-42" vertex="1">
          <mxGeometry y="52" width="160" height="8" as="geometry" />
        </mxCell>
        <mxCell id="6Ml-qydHbANvLpOPYTYB-45" value="+ method(type): type" style="text;strokeColor=none;fillColor=none;align=left;verticalAlign=top;spacingLeft=4;spacingRight=4;overflow=hidden;rotatable=0;points=[[0,0.5],[1,0.5]];portConstraint=eastwest;whiteSpace=wrap;html=1;" parent="6Ml-qydHbANvLpOPYTYB-42" vertex="1">
          <mxGeometry y="60" width="160" height="26" as="geometry" />
        </mxCell>
        <mxCell id="6Ml-qydHbANvLpOPYTYB-58" value="Extends" style="endArrow=block;endSize=16;endFill=0;html=1;rounded=0;entryX=1.016;entryY=0.073;entryDx=0;entryDy=0;exitX=0;exitY=0.5;exitDx=0;exitDy=0;entryPerimeter=0;" parent="1" source="6Ml-qydHbANvLpOPYTYB-43" target="6Ml-qydHbANvLpOPYTYB-35" edge="1">
          <mxGeometry width="160" relative="1" as="geometry">
            <mxPoint x="1500" y="-410" as="sourcePoint" />
            <mxPoint x="1660" y="-410" as="targetPoint" />
          </mxGeometry>
        </mxCell>
        <mxCell id="6Ml-qydHbANvLpOPYTYB-30" value="WaterData" style="swimlane;fontStyle=1;align=center;verticalAlign=top;childLayout=stackLayout;horizontal=1;startSize=26;horizontalStack=0;resizeParent=1;resizeParentMax=0;resizeLast=0;collapsible=1;marginBottom=0;whiteSpace=wrap;html=1;" parent="1" vertex="1">
          <mxGeometry x="1780" y="-606" width="160" height="86" as="geometry" />
        </mxCell>
        <mxCell id="6Ml-qydHbANvLpOPYTYB-31" value="+ field: type" style="text;strokeColor=none;fillColor=none;align=left;verticalAlign=top;spacingLeft=4;spacingRight=4;overflow=hidden;rotatable=0;points=[[0,0.5],[1,0.5]];portConstraint=eastwest;whiteSpace=wrap;html=1;" parent="6Ml-qydHbANvLpOPYTYB-30" vertex="1">
          <mxGeometry y="26" width="160" height="26" as="geometry" />
        </mxCell>
        <mxCell id="6Ml-qydHbANvLpOPYTYB-32" value="" style="line;strokeWidth=1;fillColor=none;align=left;verticalAlign=middle;spacingTop=-1;spacingLeft=3;spacingRight=3;rotatable=0;labelPosition=right;points=[];portConstraint=eastwest;strokeColor=inherit;" parent="6Ml-qydHbANvLpOPYTYB-30" vertex="1">
          <mxGeometry y="52" width="160" height="8" as="geometry" />
        </mxCell>
        <mxCell id="6Ml-qydHbANvLpOPYTYB-33" value="+ method(type): type" style="text;strokeColor=none;fillColor=none;align=left;verticalAlign=top;spacingLeft=4;spacingRight=4;overflow=hidden;rotatable=0;points=[[0,0.5],[1,0.5]];portConstraint=eastwest;whiteSpace=wrap;html=1;" parent="6Ml-qydHbANvLpOPYTYB-30" vertex="1">
          <mxGeometry y="60" width="160" height="26" as="geometry" />
        </mxCell>
        <mxCell id="6Ml-qydHbANvLpOPYTYB-59" value="Extends" style="endArrow=block;endSize=16;endFill=0;html=1;rounded=0;entryX=1;entryY=0.5;entryDx=0;entryDy=0;exitX=0;exitY=0.5;exitDx=0;exitDy=0;" parent="1" source="6Ml-qydHbANvLpOPYTYB-31" target="6Ml-qydHbANvLpOPYTYB-35" edge="1">
          <mxGeometry width="160" relative="1" as="geometry">
            <mxPoint x="1520" y="-405" as="sourcePoint" />
            <mxPoint x="1448" y="-331" as="targetPoint" />
          </mxGeometry>
        </mxCell>
        <mxCell id="6Ml-qydHbANvLpOPYTYB-38" value="ElectricityData" style="swimlane;fontStyle=1;align=center;verticalAlign=top;childLayout=stackLayout;horizontal=1;startSize=26;horizontalStack=0;resizeParent=1;resizeParentMax=0;resizeLast=0;collapsible=1;marginBottom=0;whiteSpace=wrap;html=1;" parent="1" vertex="1">
          <mxGeometry x="1780" y="-490" width="160" height="86" as="geometry" />
        </mxCell>
        <mxCell id="6Ml-qydHbANvLpOPYTYB-39" value="+ field: type" style="text;strokeColor=none;fillColor=none;align=left;verticalAlign=top;spacingLeft=4;spacingRight=4;overflow=hidden;rotatable=0;points=[[0,0.5],[1,0.5]];portConstraint=eastwest;whiteSpace=wrap;html=1;" parent="6Ml-qydHbANvLpOPYTYB-38" vertex="1">
          <mxGeometry y="26" width="160" height="26" as="geometry" />
        </mxCell>
        <mxCell id="6Ml-qydHbANvLpOPYTYB-40" value="" style="line;strokeWidth=1;fillColor=none;align=left;verticalAlign=middle;spacingTop=-1;spacingLeft=3;spacingRight=3;rotatable=0;labelPosition=right;points=[];portConstraint=eastwest;strokeColor=inherit;" parent="6Ml-qydHbANvLpOPYTYB-38" vertex="1">
          <mxGeometry y="52" width="160" height="8" as="geometry" />
        </mxCell>
        <mxCell id="6Ml-qydHbANvLpOPYTYB-41" value="+ method(type): type" style="text;strokeColor=none;fillColor=none;align=left;verticalAlign=top;spacingLeft=4;spacingRight=4;overflow=hidden;rotatable=0;points=[[0,0.5],[1,0.5]];portConstraint=eastwest;whiteSpace=wrap;html=1;" parent="6Ml-qydHbANvLpOPYTYB-38" vertex="1">
          <mxGeometry y="60" width="160" height="26" as="geometry" />
        </mxCell>
        <mxCell id="6Ml-qydHbANvLpOPYTYB-60" value="Extends" style="endArrow=block;endSize=16;endFill=0;html=1;rounded=0;entryX=1.012;entryY=0.175;entryDx=0;entryDy=0;exitX=0;exitY=0.5;exitDx=0;exitDy=0;entryPerimeter=0;" parent="1" source="6Ml-qydHbANvLpOPYTYB-39" target="6Ml-qydHbANvLpOPYTYB-37" edge="1">
          <mxGeometry width="160" relative="1" as="geometry">
            <mxPoint x="1530" y="-395" as="sourcePoint" />
            <mxPoint x="1458" y="-321" as="targetPoint" />
          </mxGeometry>
        </mxCell>
        <mxCell id="6Ml-qydHbANvLpOPYTYB-85" value="&lt;p style=&quot;margin:0px;margin-top:4px;text-align:center;&quot;&gt;&lt;i&gt;&amp;lt;&amp;lt;Interface&amp;gt;&amp;gt;&lt;/i&gt;&lt;br&gt;&lt;b&gt;TransferStrategy&lt;/b&gt;&lt;/p&gt;&lt;hr size=&quot;1&quot;&gt;&lt;p style=&quot;margin:0px;margin-left:4px;&quot;&gt;&lt;/p&gt;&lt;p style=&quot;margin:0px;margin-left:4px;&quot;&gt;+ transfer(Account) : Boolean&lt;br&gt;&lt;br&gt;&lt;/p&gt;" style="verticalAlign=top;align=left;overflow=fill;fontSize=12;fontFamily=Helvetica;html=1;whiteSpace=wrap;" parent="1" vertex="1">
          <mxGeometry x="640" y="-774" width="190" height="74" as="geometry" />
        </mxCell>
        <mxCell id="6Ml-qydHbANvLpOPYTYB-87" value="TransferToE-wallet" style="swimlane;fontStyle=1;align=center;verticalAlign=top;childLayout=stackLayout;horizontal=1;startSize=26;horizontalStack=0;resizeParent=1;resizeParentMax=0;resizeLast=0;collapsible=1;marginBottom=0;whiteSpace=wrap;html=1;" parent="1" vertex="1">
          <mxGeometry x="550" y="-650" width="180" height="60" as="geometry" />
        </mxCell>
        <mxCell id="6Ml-qydHbANvLpOPYTYB-89" value="" style="line;strokeWidth=1;fillColor=none;align=left;verticalAlign=middle;spacingTop=-1;spacingLeft=3;spacingRight=3;rotatable=0;labelPosition=right;points=[];portConstraint=eastwest;strokeColor=inherit;" parent="6Ml-qydHbANvLpOPYTYB-87" vertex="1">
          <mxGeometry y="26" width="180" height="8" as="geometry" />
        </mxCell>
        <mxCell id="6Ml-qydHbANvLpOPYTYB-90" value="+ transfer(Account) : Boolean" style="text;strokeColor=none;fillColor=none;align=left;verticalAlign=top;spacingLeft=4;spacingRight=4;overflow=hidden;rotatable=0;points=[[0,0.5],[1,0.5]];portConstraint=eastwest;whiteSpace=wrap;html=1;" parent="6Ml-qydHbANvLpOPYTYB-87" vertex="1">
          <mxGeometry y="34" width="180" height="26" as="geometry" />
        </mxCell>
        <mxCell id="6Ml-qydHbANvLpOPYTYB-91" value="TransferToBank" style="swimlane;fontStyle=1;align=center;verticalAlign=top;childLayout=stackLayout;horizontal=1;startSize=26;horizontalStack=0;resizeParent=1;resizeParentMax=0;resizeLast=0;collapsible=1;marginBottom=0;whiteSpace=wrap;html=1;" parent="1" vertex="1">
          <mxGeometry x="740" y="-650" width="180" height="60" as="geometry" />
        </mxCell>
        <mxCell id="6Ml-qydHbANvLpOPYTYB-93" value="" style="line;strokeWidth=1;fillColor=none;align=left;verticalAlign=middle;spacingTop=-1;spacingLeft=3;spacingRight=3;rotatable=0;labelPosition=right;points=[];portConstraint=eastwest;strokeColor=inherit;" parent="6Ml-qydHbANvLpOPYTYB-91" vertex="1">
          <mxGeometry y="26" width="180" height="8" as="geometry" />
        </mxCell>
        <mxCell id="6Ml-qydHbANvLpOPYTYB-94" value="+ transfer(Account) : Boolean" style="text;strokeColor=none;fillColor=none;align=left;verticalAlign=top;spacingLeft=4;spacingRight=4;overflow=hidden;rotatable=0;points=[[0,0.5],[1,0.5]];portConstraint=eastwest;whiteSpace=wrap;html=1;" parent="6Ml-qydHbANvLpOPYTYB-91" vertex="1">
          <mxGeometry y="34" width="180" height="26" as="geometry" />
        </mxCell>
        <mxCell id="6Ml-qydHbANvLpOPYTYB-95" value="" style="endArrow=block;dashed=1;endFill=0;endSize=12;html=1;rounded=0;entryX=0.25;entryY=1;entryDx=0;entryDy=0;exitX=0.5;exitY=0;exitDx=0;exitDy=0;" parent="1" source="6Ml-qydHbANvLpOPYTYB-87" target="6Ml-qydHbANvLpOPYTYB-85" edge="1">
          <mxGeometry width="160" relative="1" as="geometry">
            <mxPoint x="650" y="-650" as="sourcePoint" />
            <mxPoint x="810" y="-650" as="targetPoint" />
          </mxGeometry>
        </mxCell>
        <mxCell id="6Ml-qydHbANvLpOPYTYB-96" value="" style="endArrow=block;dashed=1;endFill=0;endSize=12;html=1;rounded=0;exitX=0.5;exitY=0;exitDx=0;exitDy=0;" parent="1" source="6Ml-qydHbANvLpOPYTYB-91" edge="1">
          <mxGeometry width="160" relative="1" as="geometry">
            <mxPoint x="660" y="-640" as="sourcePoint" />
            <mxPoint x="780" y="-700" as="targetPoint" />
          </mxGeometry>
        </mxCell>
        <mxCell id="6Ml-qydHbANvLpOPYTYB-86" value="1" style="endArrow=open;html=1;endSize=12;startArrow=diamondThin;startSize=14;startFill=0;edgeStyle=orthogonalEdgeStyle;align=left;verticalAlign=bottom;rounded=0;entryX=1;entryY=0.5;entryDx=0;entryDy=0;exitX=0;exitY=0.5;exitDx=0;exitDy=0;" parent="1" source="6Ml-qydHbANvLpOPYTYB-102" target="6Ml-qydHbANvLpOPYTYB-85" edge="1">
          <mxGeometry x="-0.9128" y="-7" relative="1" as="geometry">
            <mxPoint x="805" y="-360" as="sourcePoint" />
            <mxPoint x="670" y="-640" as="targetPoint" />
            <Array as="points">
              <mxPoint x="930" y="-503" />
              <mxPoint x="930" y="-737" />
            </Array>
            <mxPoint as="offset" />
          </mxGeometry>
        </mxCell>
        <mxCell id="6Ml-qydHbANvLpOPYTYB-101" value="Transaction" style="swimlane;fontStyle=1;align=center;verticalAlign=top;childLayout=stackLayout;horizontal=1;startSize=26;horizontalStack=0;resizeParent=1;resizeParentMax=0;resizeLast=0;collapsible=1;marginBottom=0;whiteSpace=wrap;html=1;" parent="1" vertex="1">
          <mxGeometry x="965" y="-542" width="180" height="100" as="geometry" />
        </mxCell>
        <mxCell id="6Ml-qydHbANvLpOPYTYB-102" value="- transfer : TransferStrategy" style="text;strokeColor=none;fillColor=none;align=left;verticalAlign=top;spacingLeft=4;spacingRight=4;overflow=hidden;rotatable=0;points=[[0,0.5],[1,0.5]];portConstraint=eastwest;whiteSpace=wrap;html=1;" parent="6Ml-qydHbANvLpOPYTYB-101" vertex="1">
          <mxGeometry y="26" width="180" height="26" as="geometry" />
        </mxCell>
        <mxCell id="6Ml-qydHbANvLpOPYTYB-103" value="" style="line;strokeWidth=1;fillColor=none;align=left;verticalAlign=middle;spacingTop=-1;spacingLeft=3;spacingRight=3;rotatable=0;labelPosition=right;points=[];portConstraint=eastwest;strokeColor=inherit;" parent="6Ml-qydHbANvLpOPYTYB-101" vertex="1">
          <mxGeometry y="52" width="180" height="8" as="geometry" />
        </mxCell>
        <mxCell id="6Ml-qydHbANvLpOPYTYB-104" value="+ setTransfer(TransferStrategy)&lt;br&gt;+ doTransfer()" style="text;strokeColor=none;fillColor=none;align=left;verticalAlign=top;spacingLeft=4;spacingRight=4;overflow=hidden;rotatable=0;points=[[0,0.5],[1,0.5]];portConstraint=eastwest;whiteSpace=wrap;html=1;" parent="6Ml-qydHbANvLpOPYTYB-101" vertex="1">
          <mxGeometry y="60" width="180" height="40" as="geometry" />
        </mxCell>
        <mxCell id="6Ml-qydHbANvLpOPYTYB-84" value="" style="endArrow=diamondThin;endFill=0;endSize=24;html=1;rounded=0;exitX=0.5;exitY=0;exitDx=0;exitDy=0;entryX=0.496;entryY=1;entryDx=0;entryDy=0;entryPerimeter=0;" parent="1" source="6Ml-qydHbANvLpOPYTYB-101" target="6Ml-qydHbANvLpOPYTYB-80" edge="1">
          <mxGeometry width="160" relative="1" as="geometry">
            <mxPoint x="1045" y="-540" as="sourcePoint" />
            <mxPoint x="860" y="-670" as="targetPoint" />
          </mxGeometry>
        </mxCell>
        <mxCell id="6Ml-qydHbANvLpOPYTYB-105" value="Use" style="endArrow=open;endSize=12;dashed=1;html=1;rounded=0;exitX=0;exitY=0.5;exitDx=0;exitDy=0;entryX=0.924;entryY=0.027;entryDx=0;entryDy=0;entryPerimeter=0;" parent="1" source="6Ml-qydHbANvLpOPYTYB-85" target="neKfUKwkKYPbyzntQtdu-49" edge="1">
          <mxGeometry width="160" relative="1" as="geometry">
            <mxPoint x="650" y="-730" as="sourcePoint" />
            <mxPoint x="30" y="-630" as="targetPoint" />
            <Array as="points">
              <mxPoint x="-20" y="-730" />
            </Array>
          </mxGeometry>
        </mxCell>
        <mxCell id="6Ml-qydHbANvLpOPYTYB-106" value="" style="endArrow=open;endFill=1;endSize=12;html=1;rounded=0;entryX=1;entryY=0.5;entryDx=0;entryDy=0;exitX=0.5;exitY=0;exitDx=0;exitDy=0;" parent="1" source="6Ml-qydHbANvLpOPYTYB-77" target="neKfUKwkKYPbyzntQtdu-78" edge="1">
          <mxGeometry width="160" relative="1" as="geometry">
            <mxPoint x="830" y="-820" as="sourcePoint" />
            <mxPoint x="990" y="-820" as="targetPoint" />
            <Array as="points">
              <mxPoint x="1055" y="-810" />
            </Array>
          </mxGeometry>
        </mxCell>
        <mxCell id="6Ml-qydHbANvLpOPYTYB-108" value="billProvider.billReciept.amount +&amp;nbsp;" style="text;html=1;align=center;verticalAlign=middle;resizable=0;points=[];autosize=1;strokeColor=none;fillColor=none;" parent="1" vertex="1">
          <mxGeometry x="1220" y="-1140" width="200" height="30" as="geometry" />
        </mxCell>
        <mxCell id="6Ml-qydHbANvLpOPYTYB-109" value="Use" style="endArrow=open;endSize=12;dashed=1;html=1;rounded=0;entryX=0.25;entryY=0;entryDx=0;entryDy=0;exitX=0.25;exitY=0;exitDx=0;exitDy=0;" parent="1" source="6Ml-qydHbANvLpOPYTYB-6" target="neKfUKwkKYPbyzntQtdu-49" edge="1">
          <mxGeometry width="160" relative="1" as="geometry">
            <mxPoint x="1250" y="-810" as="sourcePoint" />
            <mxPoint x="1230" y="-1360" as="targetPoint" />
            <Array as="points">
              <mxPoint x="1290" y="-1100" />
              <mxPoint x="-130" y="-1100" />
            </Array>
          </mxGeometry>
        </mxCell>
        <mxCell id="3DZvmF1qQiKO0Ea3N1oI-1" value="OTPManager" style="swimlane;fontStyle=1;align=center;verticalAlign=top;childLayout=stackLayout;horizontal=1;startSize=26;horizontalStack=0;resizeParent=1;resizeParentMax=0;resizeLast=0;collapsible=1;marginBottom=0;whiteSpace=wrap;html=1;" vertex="1" parent="1">
          <mxGeometry x="120" y="-1010" width="210" height="120" as="geometry" />
        </mxCell>
        <mxCell id="3DZvmF1qQiKO0Ea3N1oI-2" value="- otp : String" style="text;strokeColor=none;fillColor=none;align=left;verticalAlign=top;spacingLeft=4;spacingRight=4;overflow=hidden;rotatable=0;points=[[0,0.5],[1,0.5]];portConstraint=eastwest;whiteSpace=wrap;html=1;" vertex="1" parent="3DZvmF1qQiKO0Ea3N1oI-1">
          <mxGeometry y="26" width="210" height="26" as="geometry" />
        </mxCell>
        <mxCell id="3DZvmF1qQiKO0Ea3N1oI-3" value="" style="line;strokeWidth=1;fillColor=none;align=left;verticalAlign=middle;spacingTop=-1;spacingLeft=3;spacingRight=3;rotatable=0;labelPosition=right;points=[];portConstraint=eastwest;strokeColor=inherit;" vertex="1" parent="3DZvmF1qQiKO0Ea3N1oI-1">
          <mxGeometry y="52" width="210" height="8" as="geometry" />
        </mxCell>
        <mxCell id="3DZvmF1qQiKO0Ea3N1oI-4" value="+ generateOTP()&lt;br&gt;+ sendOTP()&lt;br&gt;+ verifyOTP(input : String) : Boolean" style="text;strokeColor=none;fillColor=none;align=left;verticalAlign=top;spacingLeft=4;spacingRight=4;overflow=hidden;rotatable=0;points=[[0,0.5],[1,0.5]];portConstraint=eastwest;whiteSpace=wrap;html=1;" vertex="1" parent="3DZvmF1qQiKO0Ea3N1oI-1">
          <mxGeometry y="60" width="210" height="60" as="geometry" />
        </mxCell>
        <mxCell id="3DZvmF1qQiKO0Ea3N1oI-6" value="" style="endArrow=open;endFill=1;endSize=12;html=1;rounded=0;entryX=0.406;entryY=-0.033;entryDx=0;entryDy=0;entryPerimeter=0;" edge="1" parent="1" target="neKfUKwkKYPbyzntQtdu-62">
          <mxGeometry width="160" relative="1" as="geometry">
            <mxPoint x="-109" y="-500" as="sourcePoint" />
            <mxPoint x="-10" y="-490" as="targetPoint" />
          </mxGeometry>
        </mxCell>
      </root>
    </mxGraphModel>
  </diagram>
</mxfile>
